<?xml version="1.0" standalone="no"?>
<!DOCTYPE svg PUBLIC "-//W3C//DTD SVG 20010904//EN"
 "http://www.w3.org/TR/2001/REC-SVG-20010904/DTD/svg10.dtd">
<svg version="1.0" xmlns="http://www.w3.org/2000/svg"
 width="1280.000000pt" height="863.000000pt" viewBox="0 0 1280.000000 863.000000"
 preserveAspectRatio="xMidYMid meet">
<g transform="translate(0.000000,863.000000) scale(0.100000,-0.100000)"
fill="#000000" stroke="none">
<path d="M6010 8583 c1 -46 6 -55 150 -242 l150 -194 0 -73 c0 -40 -4 -75 -10
-79 -5 -3 -118 49 -251 115 -198 99 -248 121 -278 118 l-36 -3 0 -305 0 -305
38 -3 c30 -3 85 18 278 103 131 58 244 103 249 100 12 -7 14 -344 2 -361 -4
-6 -36 -16 -72 -23 -205 -40 -390 -166 -464 -317 -139 -284 56 -595 430 -685
112 -27 284 -29 394 -4 158 36 313 129 395 238 172 226 98 516 -171 675 -69
41 -207 92 -248 92 -42 0 -46 15 -46 187 0 132 3 165 14 169 8 3 117 -40 242
-95 174 -77 238 -101 271 -101 l43 0 0 290 0 290 -40 0 c-31 0 -92 -26 -271
-116 -127 -63 -238 -113 -245 -110 -11 4 -14 29 -14 104 l0 98 150 195 c144
187 150 196 150 242 l0 47 -405 0 -405 0 0 -47z m295 -1423 l0 -155 -27 -3
c-72 -8 -328 90 -328 126 0 59 236 197 325 190 l30 -3 0 -155z m373 109 c88
-43 192 -134 192 -168 0 -22 -61 -51 -171 -80 -114 -30 -160 -36 -170 -20 -10
16 -12 279 -3 304 9 23 50 13 152 -36z m-162 -528 c81 -20 177 -58 222 -87 22
-15 23 -17 7 -34 -21 -23 -115 -65 -190 -85 -69 -18 -220 -20 -297 -4 -117 24
-310 142 -296 180 6 15 60 31 163 49 82 15 300 4 391 -19z"/>
<path d="M5014 6797 c-146 -38 -235 -153 -204 -267 14 -53 71 -115 134 -148
67 -34 196 -42 277 -18 184 55 248 241 123 358 -74 69 -221 102 -330 75z"/>
<path d="M7591 6795 c-209 -59 -268 -263 -112 -382 61 -47 136 -66 240 -61 95
5 151 26 209 82 47 44 65 83 65 142 0 93 -67 174 -175 211 -64 22 -164 25
-227 8z"/>
<path d="M4180 6631 c-84 -27 -139 -72 -165 -133 -31 -75 -14 -140 53 -200 63
-57 104 -71 207 -72 108 -1 174 24 229 85 89 98 61 225 -65 294 -47 25 -66 30
-144 32 -49 1 -101 -1 -115 -6z"/>
<path d="M8407 6626 c-203 -75 -221 -276 -33 -374 45 -23 62 -26 146 -26 111
0 167 21 224 84 90 100 63 225 -65 295 -46 25 -67 30 -144 32 -60 2 -103 -1
-128 -11z"/>
<path d="M3430 6355 c-59 -18 -125 -76 -140 -121 -28 -84 15 -169 106 -211 74
-33 138 -39 210 -18 105 30 164 93 164 175 0 135 -177 225 -340 175z"/>
<path d="M9172 6352 c-89 -32 -142 -96 -142 -172 0 -162 238 -245 404 -140
123 78 109 230 -28 298 -66 33 -164 39 -234 14z"/>
<path d="M5430 6283 c-253 -29 -629 -93 -900 -154 -993 -220 -2161 -686 -2942
-1174 -162 -102 -332 -226 -321 -235 20 -18 194 -140 199 -140 4 0 30 18 58
39 291 222 947 569 1527 806 689 283 1433 493 2114 599 83 12 155 21 161 19
14 -5 141 -236 192 -348 55 -124 123 -316 163 -462 l34 -123 138 0 c107 0 137
3 137 13 0 28 -91 330 -138 458 -71 194 -130 323 -240 525 -106 194 -99 187
-182 177z"/>
<path d="M7255 6228 c-80 -136 -207 -389 -258 -518 -76 -190 -187 -538 -187
-588 0 -10 31 -12 137 -10 l137 3 37 129 c50 172 101 316 161 450 55 125 176
343 192 349 6 2 79 -7 161 -19 691 -107 1447 -323 2148 -613 560 -232 1169
-554 1479 -783 37 -27 71 -48 76 -46 26 10 192 135 192 144 0 12 -177 140
-305 220 -199 125 -492 285 -735 402 -1049 502 -2109 818 -3142 937 l-56 6
-37 -63z"/>
<path d="M6286 6254 c-87 -32 -136 -94 -136 -174 0 -172 280 -255 434 -129
115 96 72 255 -83 307 -46 16 -167 14 -215 -4z"/>
<path d="M2745 6086 c-126 -58 -149 -178 -52 -261 47 -41 90 -55 167 -55 78 0
125 16 171 57 76 69 76 160 -1 226 -73 62 -193 76 -285 33z"/>
<path d="M9845 6098 c-104 -37 -161 -138 -121 -216 37 -71 113 -112 207 -112
81 0 130 16 179 57 128 110 23 284 -170 282 -36 0 -78 -5 -95 -11z"/>
<path d="M2075 5762 c-78 -38 -118 -108 -101 -176 10 -40 63 -93 111 -112 55
-21 164 -16 218 10 57 28 92 79 92 136 0 56 -21 90 -77 128 -35 23 -54 27
-122 30 -63 2 -90 -2 -121 -16z"/>
<path d="M10505 5761 c-111 -50 -137 -164 -56 -241 102 -97 307 -75 366 41 39
75 -4 164 -97 204 -52 21 -162 19 -213 -4z"/>
<path d="M6335 5751 c-149 -37 -198 -175 -94 -265 117 -99 339 -53 368 77 28
120 -124 224 -274 188z"/>
<path d="M1525 5429 c-78 -19 -135 -79 -135 -142 0 -67 94 -137 183 -137 75 0
123 19 162 62 41 45 46 94 15 145 -36 59 -140 93 -225 72z"/>
<path d="M11165 5431 c-83 -21 -135 -75 -135 -139 0 -44 23 -82 68 -112 52
-36 160 -40 222 -8 149 76 99 240 -80 261 -25 3 -58 2 -75 -2z"/>
<path d="M3092 5333 c-199 -294 -224 -660 -78 -1128 14 -44 22 -83 17 -88 -5
-5 -51 3 -102 17 -391 107 -760 59 -988 -128 -249 -205 -311 -541 -149 -814
43 -72 147 -183 223 -237 64 -46 203 -120 210 -113 3 2 0 31 -5 64 -51 312 88
544 367 610 147 36 367 18 474 -37 203 -103 265 -358 148 -608 -112 -241 -349
-423 -654 -502 -106 -28 -141 -32 -302 -36 -572 -17 -982 146 -1241 492 -100
134 -240 455 -215 493 39 62 380 -62 666 -242 60 -37 111 -65 114 -62 9 8 -35
252 -72 403 -67 271 -152 510 -226 635 -21 37 -43 69 -48 72 -10 6 -96 -50
-181 -118 -130 -106 -240 -166 -375 -209 -118 -36 -145 -41 -145 -25 0 27 321
494 435 633 30 37 55 72 55 76 0 9 -32 7 -205 -12 -147 -17 -266 -36 -541 -90
l-262 -51 32 -102 c47 -147 112 -318 162 -423 24 -51 44 -97 44 -104 0 -6 -19
-49 -41 -95 -35 -69 -43 -96 -47 -159 -8 -134 40 -212 213 -345 117 -91 144
-128 228 -315 164 -366 253 -752 226 -980 -7 -63 -19 -100 -56 -175 -39 -78
-48 -107 -51 -162 -9 -142 43 -214 233 -326 144 -84 254 -163 393 -280 175
-148 182 -152 219 -152 19 0 105 28 191 61 255 100 536 182 852 250 2317 493
6341 419 8150 -149 69 -22 196 -67 282 -101 86 -33 172 -61 191 -61 37 0 44 4
219 152 139 117 249 196 393 280 190 112 242 184 233 326 -3 55 -12 84 -51
162 -37 76 -49 111 -57 178 -27 225 63 612 227 977 84 187 111 224 228 315
174 134 221 211 213 346 -4 65 -12 89 -50 165 l-45 88 47 98 c53 109 117 276
166 429 l32 102 -262 51 c-342 67 -729 122 -745 105 -3 -2 4 -15 15 -28 146
-182 474 -655 474 -684 0 -16 -27 -12 -145 25 -135 43 -245 103 -375 209 -85
68 -171 124 -181 118 -5 -3 -27 -35 -48 -72 -74 -125 -159 -364 -226 -635 -37
-151 -81 -395 -72 -403 3 -3 54 25 114 62 158 100 312 175 448 219 133 43 201
50 218 23 25 -38 -115 -359 -215 -493 -142 -189 -337 -328 -568 -406 -204 -68
-407 -94 -673 -86 -161 4 -196 8 -302 36 -250 64 -450 195 -581 377 -172 240
-177 515 -13 669 93 87 194 119 374 118 139 0 226 -18 316 -64 192 -97 281
-306 239 -563 -5 -33 -8 -62 -5 -64 7 -7 146 67 210 113 76 54 180 165 223
237 109 183 119 403 28 591 -173 356 -636 495 -1165 351 -51 -14 -97 -22 -102
-17 -5 5 3 44 17 88 147 468 121 834 -78 1128 -26 39 -45 57 -54 53 -33 -13
-285 -216 -359 -291 -225 -223 -306 -477 -263 -821 6 -52 8 -97 4 -101 -4 -4
-37 10 -74 31 -134 75 -328 166 -392 183 -211 57 -568 -35 -718 -185 -69 -70
-106 -136 -132 -238 -54 -209 1 -375 185 -559 97 -98 180 -164 191 -152 3 3
12 38 20 78 57 275 191 383 474 383 178 0 288 -41 377 -137 74 -82 98 -153 98
-292 0 -98 -3 -116 -26 -165 -97 -205 -380 -385 -722 -459 -363 -78 -732 -34
-1062 129 -322 158 -525 382 -595 654 -21 83 -27 181 -11 191 17 10 173 -46
281 -100 58 -29 155 -83 215 -120 88 -53 121 -68 163 -72 l52 -6 0 542 0 541
-47 0 c-68 0 -129 -35 -294 -165 -195 -154 -284 -206 -319 -185 -11 7 -11 16
-1 52 22 72 103 243 212 448 114 213 149 288 149 319 l0 21 -660 0 -660 0 0
-22 c1 -33 32 -99 162 -343 166 -313 228 -465 196 -477 -40 -16 -128 37 -321
190 -160 127 -222 162 -290 162 l-47 0 0 -541 0 -542 55 6 c44 4 73 17 151 66
53 33 145 85 204 115 113 58 284 121 300 111 30 -19 -6 -217 -59 -332 -145
-309 -505 -559 -934 -647 -471 -98 -1011 34 -1288 314 -88 90 -130 174 -137
275 -9 139 27 253 105 336 87 93 198 133 373 133 283 0 417 -108 474 -383 8
-40 17 -75 20 -78 11 -12 94 54 191 152 184 184 239 350 185 559 -26 102 -63
168 -132 238 -150 150 -507 242 -718 185 -64 -17 -258 -108 -392 -183 -37 -21
-70 -35 -74 -31 -4 4 -1 54 6 112 25 200 -2 399 -74 550 -44 94 -141 221 -229
299 -84 75 -316 256 -328 256 -4 0 -26 -26 -47 -57z m3396 -1363 c93 -57 65
-169 -50 -201 -72 -19 -169 29 -183 91 -8 38 17 85 58 110 44 27 131 27 175 0z
m-6032 -425 c65 -50 120 -201 100 -279 -10 -41 -41 -66 -81 -66 -97 0 -203
202 -165 312 25 71 80 83 146 33z m11989 25 c61 -23 69 -128 19 -240 -50 -111
-141 -163 -194 -110 -70 70 -5 291 102 343 39 20 40 20 73 7z m-5872 -1246
c111 -139 155 -200 149 -210 -16 -29 -315 -394 -323 -394 -7 0 -297 352 -321
389 -10 16 10 44 148 215 87 107 166 195 174 195 8 0 86 -88 173 -195z m-1423
43 c60 -32 87 -84 71 -137 -38 -129 -266 -141 -321 -18 -55 123 113 228 250
155z m2673 9 c108 -45 116 -175 14 -228 -84 -44 -196 -20 -244 52 -28 40 -29
65 -4 110 36 68 152 101 234 66z m-3913 -16 c331 -35 553 -184 553 -371 1
-281 -498 -505 -963 -434 -301 45 -490 189 -490 370 0 75 24 129 86 195 115
123 330 215 560 239 112 12 147 12 254 1z m5331 -16 c244 -46 455 -170 523
-306 54 -109 26 -231 -75 -322 -158 -142 -449 -205 -747 -160 -507 75 -764
402 -502 638 162 145 496 208 801 150z m-6964 -354 c50 -22 83 -70 83 -119 0
-70 -113 -142 -199 -126 -88 17 -141 68 -141 135 0 99 146 161 257 110z m8420
0 c48 -21 83 -70 83 -113 0 -88 -117 -155 -221 -127 -60 16 -119 76 -119 121
0 77 76 139 170 139 25 0 64 -9 87 -20z m-5467 -142 c111 -57 113 -165 4 -222
-52 -28 -137 -28 -183 -1 -80 47 -100 128 -46 186 59 63 146 77 225 37z m2503
8 c157 -67 100 -251 -79 -251 -50 0 -68 5 -103 28 -98 65 -84 172 29 221 44
19 111 20 153 2z m-6465 -229 c124 -77 162 -106 162 -122 0 -11 -20 -87 -45
-169 -25 -82 -45 -151 -45 -153 0 -20 -353 185 -364 212 -4 10 85 312 98 334
9 14 -6 21 194 -102z m10487 16 c15 -49 37 -122 50 -163 12 -41 21 -79 19 -85
-11 -27 -364 -232 -364 -212 0 2 -20 71 -45 153 -25 82 -45 158 -45 169 0 16
39 45 163 123 89 56 170 102 179 102 12 0 23 -22 43 -87z m-9355 -162 c43 -22
80 -74 80 -111 0 -37 -39 -92 -80 -112 -42 -22 -128 -23 -173 -4 -50 20 -87
70 -87 116 0 45 37 95 85 116 45 20 134 17 175 -5z m8173 5 c50 -20 87 -70 87
-116 0 -46 -37 -96 -87 -116 -45 -19 -131 -18 -173 4 -41 20 -80 75 -80 112 0
37 37 89 80 111 41 23 126 25 173 5z"/>
<path d="M6331 5286 c-79 -29 -108 -117 -53 -168 40 -38 65 -48 117 -48 87 0
155 50 155 114 0 85 -117 139 -219 102z"/>
<path d="M1014 5051 c-50 -23 -74 -54 -74 -97 0 -112 192 -156 279 -63 32 34
29 98 -6 131 -54 51 -127 62 -199 29z"/>
<path d="M11635 5056 c-99 -44 -106 -154 -13 -196 51 -23 116 -25 162 -6 67
28 96 103 60 155 -36 51 -144 76 -209 47z"/>
<path d="M5705 1174 c-790 -28 -1433 -75 -2045 -149 -937 -114 -1686 -285
-1828 -418 -58 -54 7 -109 201 -171 609 -193 1950 -355 3347 -406 162 -6 405
-15 540 -20 309 -13 658 -13 960 0 129 5 370 14 535 20 1406 51 2741 213 3352
406 194 62 259 117 201 171 -165 154 -1138 355 -2238 462 -819 80 -1272 102
-2195 105 -407 2 -780 2 -830 0z"/>
</g>
</svg>
